<?xml version="1.0" encoding="utf-8"?>
<!-- Generator: Adobe Illustrator 23.0.3, SVG Export Plug-In . SVG Version: 6.00 Build 0)  -->
<svg version="1.1" id="_x35_4_x25_" xmlns="http://www.w3.org/2000/svg" xmlns:xlink="http://www.w3.org/1999/xlink" x="0px"
	 y="0px" viewBox="0 0 44.66 36.76" style="enable-background:new 0 0 44.66 36.76;" xml:space="preserve">
<style type="text/css">
	.st0{fill:#39331D;}
	.st1{fill:#FEFEFE;}
</style>
<g>
	<path class="st0" d="M6.06,34.76H4.62l-0.25,1.8H2.32l1.66-8.73H6.7l1.67,8.73H6.31L6.06,34.76z M5.87,33.31l-0.36-2.62
		c-0.05-0.39-0.1-0.71-0.15-1.19H5.32c-0.04,0.48-0.1,0.8-0.15,1.19l-0.36,2.62H5.87z"/>
	<path class="st0" d="M9.31,27.82h2.05v6.96h2.1v1.77H9.31V27.82z"/>
	<path class="st0" d="M14.05,34.02v-3.59c0-1.84,1.02-2.82,2.82-2.82c1.72,0,2.71,0.84,2.71,2.44v1l-2.12,0.38V30.1
		c0-0.6-0.21-0.91-0.63-0.91c-0.44,0-0.66,0.37-0.66,1.08v3.82c0,0.71,0.22,1.08,0.65,1.08c0.42,0,0.65-0.33,0.65-0.96v-1.38
		l2.09,0.41v0.97c0,1.66-1.03,2.55-2.74,2.55C15.01,36.76,14.05,35.86,14.05,34.02z"/>
	<path class="st0" d="M22.39,36.55h-1.91v-2.28h1.91V36.55z"/>
	<path class="st0" d="M22.41,27.82h2.12l0.66,5.29c0.09,0.69,0.11,1.17,0.13,1.67h0.06c0.03-0.5,0.05-0.98,0.14-1.67l0.66-5.29h2.1
		l-1.62,8.73h-2.62L22.41,27.82z"/>
	<path class="st0" d="M28.72,33.88v-3.39c0-1.84,1.08-2.88,2.85-2.88c1.77,0,2.85,1.03,2.85,2.88v3.39c0,1.84-1.08,2.88-2.85,2.88
		C29.8,36.76,28.72,35.73,28.72,33.88z M32.31,34.15v-3.94c0-0.68-0.27-1.03-0.74-1.03c-0.47,0-0.74,0.36-0.74,1.03v3.94
		c0,0.68,0.27,1.03,0.74,1.03C32.04,35.19,32.31,34.83,32.31,34.15z"/>
	<path class="st0" d="M35.55,27.82h2.05v6.96h2.1v1.77h-4.16V27.82z"/>
	<path class="st0" d="M42.34,36.55h-1.91v-2.28h1.91V36.55z"/>
</g>
<g>
	<polygon class="st1" points="0.33,12.72 22.33,0 44.33,12.72 22.33,25.44 	"/>
	<g id="NDYcpd.tif_2_">
		<g>
			<path class="st0" d="M11.07,3.98c2.17,0,4.29,0,6.44,0c-0.22,0.88-0.43,1.74-0.65,2.59c-0.18,0.68-0.18,0.68-0.89,0.68
				c-1.33,0-2.67,0-4,0c-0.11,0-0.22,0-0.36,0c-0.12,0.58-0.24,1.14-0.37,1.73c0.52,0.18,1.03,0.33,1.53,0.52
				c1.14,0.41,2.24,0.9,3.2,1.67c0.94,0.75,1.6,1.67,1.64,2.93c0.03,0.89-0.3,1.67-0.79,2.37c-0.93,1.33-1.92,2.62-2.88,3.92
				c-0.29,0.4-0.6,0.79-0.91,1.2c-1.46-0.93-2.9-1.84-4.37-2.78c0.63-0.95,1.25-1.87,1.88-2.81c1.12,0.75,2.22,1.48,3.33,2.22
				c0.58-0.49,1.06-1.05,1.27-1.77c0.19-0.69-0.05-1.3-0.53-1.82c-0.65-0.69-1.48-1.09-2.35-1.39c-0.98-0.33-1.97-0.59-2.96-0.88
				c-0.09-0.03-0.17-0.05-0.28-0.09C9.7,9.49,10.39,6.74,11.07,3.98z"/>
			<path class="st0" d="M22.83,3.98c1.68,0,3.34,0,5.07,0c-2.69,3.37-5.12,6.86-7.17,10.66c0.83,0,1.63,0,2.46,0
				c0-0.57,0.04-1.15-0.01-1.73c-0.07-0.75,0.15-1.33,0.64-1.91c0.85-1,1.63-2.06,2.43-3.1c0.05-0.06,0.11-0.12,0.2-0.22
				c0,2.35,0,4.64,0,6.96c0.36,0,0.7,0,1.06,0c0,0.86,0,1.68,0,2.53c-0.33,0-0.67,0-1.04,0c0,1.26,0,2.48,0,3.73
				c-1.11,0-2.18,0-3.28,0c0-1.23,0-2.45,0-3.71c-1.69,0-3.36,0-5.07,0c0.05-0.12,0.08-0.2,0.12-0.28c0.89-1.77,1.81-3.52,2.67-5.31
				c0.82-1.71,1.39-3.51,1.68-5.38C22.71,5.49,22.75,4.75,22.83,3.98z"/>
			<path class="st0" d="M36.01,11.53c1.01,0.63,1.59,1.52,1.72,2.69c0.17,1.51-0.32,2.75-1.51,3.71c-0.1,0.08-0.16,0.1-0.27,0.01
				c-0.73-0.61-1.28-1.34-1.48-2.28C34.13,14.11,34.6,12.47,36.01,11.53z M36.8,15.83c-0.03-0.54-0.14-1.07-0.34-1.57
				c-0.13-0.31-0.3-0.6-0.47-0.89c-0.09-0.14-0.24-0.26-0.42-0.19c-0.17,0.07-0.2,0.25-0.18,0.41c0.03,0.33,0.06,0.67,0.15,1
				c0.14,0.54,0.35,1.07,0.72,1.51c0.1,0.12,0.22,0.25,0.39,0.19c0.18-0.06,0.17-0.24,0.17-0.39C36.8,15.88,36.8,15.85,36.8,15.83z"
				/>
			<path class="st0" d="M29.87,10.49c0.02-1.17,0.47-2.23,1.52-3c0.1-0.07,0.17-0.07,0.27-0.01c0.95,0.63,1.46,1.51,1.58,2.64
				c0.12,1.12-0.13,2.14-0.84,3.02c-0.2,0.25-0.46,0.46-0.69,0.69c-0.07,0.07-0.13,0.08-0.21,0.01
				C30.46,13.01,29.88,11.95,29.87,10.49z M30.87,9.52c0.03,0.55,0.16,1.03,0.34,1.49c0.14,0.37,0.3,0.72,0.57,1.01
				c0.1,0.1,0.23,0.21,0.35,0.13c0.09-0.06,0.15-0.21,0.15-0.33c0.01-0.22-0.02-0.45-0.06-0.67c-0.11-0.63-0.27-1.24-0.63-1.78
				c-0.08-0.12-0.19-0.23-0.31-0.31c-0.15-0.1-0.29-0.05-0.35,0.13C30.89,9.32,30.88,9.45,30.87,9.52z"/>
			<path class="st0" d="M31.2,17.96c0.12-0.33,0.24-0.64,0.35-0.95c1.16-3.12,2.31-6.23,3.46-9.35c0.05-0.14,0.11-0.21,0.28-0.2
				c0.21,0.02,0.42,0,0.65,0c-0.08,0.27-0.15,0.52-0.23,0.77c-0.89,2.93-1.79,5.87-2.68,8.8c-0.08,0.27-0.15,0.53-0.24,0.8
				c-0.02,0.05-0.08,0.12-0.12,0.12C32.19,17.96,31.71,17.96,31.2,17.96z"/>
		</g>
	</g>
</g>
</svg>
