<?xml version="1.0" encoding="utf-8"?>
<!-- Generator: Adobe Illustrator 23.0.3, SVG Export Plug-In . SVG Version: 6.00 Build 0)  -->
<svg version="1.1" id="Yamerito" xmlns="http://www.w3.org/2000/svg" xmlns:xlink="http://www.w3.org/1999/xlink" x="0px" y="0px"
	 viewBox="0 0 115.9 22.96" style="enable-background:new 0 0 115.9 22.96;" xml:space="preserve">
<style type="text/css">
	.st0{fill:#39331D;}
</style>
<g>
	<polygon class="st0" points="6.89,5.39 6.92,5.24 5.26,5.24 4.19,11.44 3.06,5.24 1.26,5.24 3.26,14.65 3.26,21.89 4.98,21.89 
		4.98,14.7 	"/>
	<path class="st0" d="M11.23,5.22H8.84L6.81,21.75l-0.02,0.14h1.59L9,16.78h1.94l0.6,5.1h1.75L11.24,5.33L11.23,5.22z M10.75,15.2
		H9.19l0.78-6.98L10.75,15.2z"/>
	<polygon class="st0" points="19.78,11.4 18.32,5.34 18.3,5.24 16.47,5.24 16.47,21.89 18.05,21.89 18.05,9.88 19.18,14.57 
		19.2,14.67 20.25,14.67 21.43,9.82 21.43,21.89 23.06,21.89 23.06,5.24 21.32,5.24 	"/>
	<polygon class="st0" points="26.12,13.95 28.15,13.95 28.15,12.3 26.12,12.3 26.12,6.87 28.58,6.87 28.58,5.24 24.45,5.24 
		24.45,21.89 28.63,21.89 28.63,20.28 26.12,20.28 	"/>
	<path class="st0" d="M34.86,9.71c0-3.05-0.95-4.47-2.98-4.47h-2.17v16.65h1.7v-7.68h0.76l1.1,7.68h1.75l-1.25-8.24
		C34.31,13.18,34.86,11.91,34.86,9.71z M33.09,9.9c0,1.83-0.33,2.84-0.93,2.84h-0.75V6.89h0.5C33,6.89,33.09,8.44,33.09,9.9z"/>
	<rect x="36.11" y="5.24" class="st0" width="1.7" height="16.65"/>
	<polygon class="st0" points="38.71,6.87 40.59,6.87 40.59,21.89 42.29,21.89 42.29,6.87 44.15,6.87 44.15,5.24 38.71,5.24 	"/>
	<path class="st0" d="M47.48,5.03c-1.68,0-2.72,1.06-2.72,2.77v11.34c0,1.9,0.91,2.91,2.63,2.91c1.76,0,2.72-1.03,2.72-2.91V7.66
		C50.11,6.04,49.1,5.03,47.48,5.03z M46.5,7.62c0-0.46,0.25-0.96,0.93-0.96c0.62,0,0.93,0.34,0.93,1v11.59
		c0,0.8-0.28,1.16-0.91,1.16c-0.93,0-0.96-1.02-0.96-1.14V7.62z"/>
	<polygon class="st0" points="55.19,13.95 57.22,13.95 57.22,12.3 55.19,12.3 55.19,6.87 57.65,6.87 57.65,5.24 53.52,5.24 
		53.52,21.89 57.7,21.89 57.7,20.28 55.19,20.28 	"/>
	<path class="st0" d="M61.21,12l-0.06-0.13c-0.39-0.85-1.12-2.44-1.12-3.73c0-1.37,0.4-1.55,0.79-1.55c0.56,0,0.79,0.69,0.86,2.55
		l0,0.12h1.58V9.14c0-2.95-0.67-4.1-2.4-4.1c-1.6,0-2.52,1.18-2.52,3.23c0,1.74,0.64,3.22,1.3,4.58l1.06,2.21
		c0.72,1.54,1.02,2.69,1.02,3.83c0,0.96-0.14,1.6-0.84,1.6c-0.77,0-0.91-0.92-0.91-2.73v-0.12H58.3l0,0.12
		c-0.03,1.81,0.27,3.01,0.92,3.67c0.41,0.42,0.96,0.62,1.66,0.62c1.53,0,2.52-1.25,2.52-3.18c0-1.99-0.75-3.84-1.48-5.39L61.21,12z"
		/>
	<polygon class="st0" points="63.75,6.87 65.64,6.87 65.64,21.89 67.34,21.89 67.34,6.87 69.2,6.87 69.2,5.24 63.75,5.24 	"/>
	<polygon class="st0" points="74.8,0.92 72.94,0.92 71.75,4.27 73.01,4.27 	"/>
	<path class="st0" d="M73.69,5.22h-2.38l-2.04,16.53l-0.02,0.14h1.59l0.62-5.1h1.94l0.6,5.1h1.75L73.71,5.33L73.69,5.22z
		 M73.21,15.2h-1.56l0.78-6.98L73.21,15.2z"/>
	<polygon class="st0" points="80.61,13.95 82.63,13.95 82.63,12.3 80.61,12.3 80.61,6.87 83.07,6.87 83.07,5.24 78.93,5.24 
		78.93,21.89 83.11,21.89 83.11,20.28 80.61,20.28 	"/>
	<polygon class="st0" points="85.87,5.24 84.2,5.24 84.2,21.89 88.38,21.89 88.38,20.28 85.87,20.28 	"/>
	<path class="st0" d="M94.12,12l-0.06-0.14c-0.39-0.85-1.12-2.44-1.12-3.72c0-1.37,0.4-1.55,0.79-1.55c0.56,0,0.79,0.69,0.86,2.55
		l0,0.12h1.58V9.14c0-2.95-0.67-4.1-2.4-4.1c-1.6,0-2.52,1.18-2.52,3.23c0,1.74,0.64,3.22,1.3,4.58l1.06,2.21
		c0.72,1.54,1.02,2.69,1.02,3.83c0,0.96-0.14,1.6-0.84,1.6c-0.77,0-0.91-0.92-0.91-2.73v-0.12h-1.67l0,0.12
		c-0.03,1.81,0.27,3.01,0.92,3.67c0.41,0.42,0.96,0.62,1.66,0.62c1.53,0,2.52-1.25,2.52-3.18c0-2-0.75-3.84-1.48-5.39L94.12,12z"/>
	<rect x="97.4" y="5.24" class="st0" width="1.7" height="16.65"/>
	<polygon class="st0" points="100,6.87 101.88,6.87 101.88,21.89 103.58,21.89 103.58,6.87 105.45,6.87 105.45,5.24 100,5.24 	"/>
	<rect x="106.35" y="5.24" class="st0" width="1.7" height="16.65"/>
	<path class="st0" d="M112.02,5.03c-1.68,0-2.72,1.06-2.72,2.77v11.34c0,1.9,0.91,2.91,2.63,2.91c1.76,0,2.72-1.03,2.72-2.91V7.66
		C114.65,6.04,113.64,5.03,112.02,5.03z M111.04,7.62c0-0.22,0.07-0.96,0.93-0.96c0.62,0,0.93,0.34,0.93,1v11.59
		c0,0.8-0.28,1.16-0.91,1.16c-0.93,0-0.96-1.02-0.96-1.14V7.62z"/>
</g>
</svg>
