<?xml version="1.0" encoding="utf-8"?>
<!-- Generator: Adobe Illustrator 23.0.3, SVG Export Plug-In . SVG Version: 6.00 Build 0)  -->
<svg version="1.1" id="_x31_" xmlns="http://www.w3.org/2000/svg" xmlns:xlink="http://www.w3.org/1999/xlink" x="0px" y="0px"
	 viewBox="0 0 130.88 60.22" style="enable-background:new 0 0 130.88 60.22;" xml:space="preserve">
<style type="text/css">
	.st0{fill:#FFFFFF;}
	.st1{fill:#39331D;}
</style>
<g>
	<path class="st0" d="M101.19,15.6c-0.35,0.44-0.6,0.92-0.75,1.43c0.57-0.49,1.2-0.9,1.97-1.15c0.93-0.31,1.2-0.59,1.09-1.47
		c-0.02-0.18-0.06-0.35-0.11-0.52c-0.07,0.03-0.15,0.06-0.23,0.08c-0.29,0.09-0.55,0.22-0.8,0.36
		C101.94,14.73,101.55,15.15,101.19,15.6z"/>
	<path class="st0" d="M97.72,21.19c0.22-0.07,0.48-0.37,0.5-0.57c0.04-0.52,0.2-1,0.43-1.44c-0.06,0.05-0.12,0.08-0.18,0.1
		c-1.01,0.32-2.2-0.28-2.37-1.27c-0.12-0.72-0.08-1.47,0.02-2.19c0.09-0.65,0.24-1.29,0.42-1.92c-0.61,1.21-0.98,2.5-1.17,3.83
		c-0.1,0.72-0.14,1.48-0.02,2.19C95.52,20.9,96.71,21.51,97.72,21.19z"/>
	<path class="st0" d="M114.6,24.57c0.46-0.54,0.94-1.07,1.46-1.58c0.31-0.3,0.67-0.57,1.04-0.82c0.97-0.63,1.85-0.6,2.78,0.09
		c0.29,0.22,0.55,0.48,0.77,0.76c0.22,0.28,0.37,0.5,0.45,0.68c0.11-0.16,0.22-0.31,0.33-0.47c0.67-0.98,0.72-1.16-0.03-2.13
		c-0.22-0.28-0.48-0.54-0.77-0.76c-0.8-0.6-1.58-0.7-2.4-0.3c-0.02,0.02-0.05,0.04-0.08,0.07C116.76,21.49,115.59,22.98,114.6,24.57
		z"/>
	<path class="st0" d="M121.95,38.14c-0.52,0.45-1.09,0.86-1.72,1.19c-0.82,0.43-1.7,0.61-2.63,0.57c-1.47-0.07-2.34-0.81-2.53-2.19
		c-0.06-0.44-0.05-0.9-0.06-1.41c-0.86,0.87-1.77,1.67-2.82,2.32c-0.77,0.63-1.6,1.19-2.55,1.63c-0.61,0.28-1.3,0.49-1.97,0.57
		c-2.1,0.26-3.38-0.67-3.71-2.63c-0.06-0.37-0.09-0.74-0.13-1.11c-0.13,0.16-0.26,0.32-0.4,0.47c-0.84,0.95-1.76,1.83-2.89,2.5
		c-0.51,0.43-1.05,0.83-1.66,1.16c-0.76,0.41-1.57,0.61-2.44,0.61c-1.49-0.01-2.39-0.69-2.64-2.06c-0.07-0.4-0.1-0.81-0.14-1.23
		c-0.64,0.66-1.29,1.31-1.99,1.91c-0.32,0.27-0.67,0.49-1.04,0.67c-0.11,0.09-0.2,0.2-0.31,0.29c-0.95,0.81-2.12,1.26-3.47,1.23
		c-1.55-0.04-2.44-0.72-2.71-2.14c-0.04-0.23-0.06-0.48-0.09-0.76c-0.66,0.63-1.32,1.26-2.05,1.81c-0.25,0.19-0.52,0.35-0.8,0.49
		c-0.19,0.16-0.36,0.33-0.55,0.48c-1.1,0.84-2.43,1.14-3.86,0.86c-1.02-0.2-1.69-0.77-2.02-1.69c-0.37-1.04-0.24-2.1-0.09-3.15
		c-1.26,1.44-2.61,2.79-4.28,3.85c-0.03,0.02-0.07,0.04-0.1,0.06c-0.4,0.31-0.8,0.62-1.24,0.9c-1.33,0.85-2.78,1.33-4.43,1.12
		c-1.22-0.15-2.03-0.77-2.11-1.9c-0.07-0.92,0.01-1.89,0.25-2.78c0.09-0.32,0.19-0.64,0.29-0.96c-0.41,0.93-0.77,1.88-1.04,2.86
		c-0.24,0.89-0.32,1.86-0.25,2.78c0.08,1.13,0.9,1.75,2.11,1.9c1.65,0.2,3.09-0.28,4.43-1.13c2.09-1.33,3.7-3.11,5.23-4.96
		c0.12-0.15,0.2-0.33,0.33-0.56c0.12,0.21,0.14,0.22,0.14,0.24c-0.01,0.11-0.03,0.22-0.05,0.33c-0.16,1.1-0.31,2.2,0.07,3.29
		c0.33,0.92,1,1.49,2.02,1.69c1.43,0.28,2.76-0.02,3.86-0.86c1.05-0.81,1.96-1.76,2.94-2.65c0.14-0.13,0.26-0.28,0.43-0.45
		c0.05,0.43,0.06,0.76,0.12,1.08c0.27,1.42,1.16,2.1,2.71,2.14c1.35,0.03,2.52-0.42,3.47-1.23c1.06-0.91,2-1.94,2.99-2.92
		c0.11-0.11,0.22-0.23,0.32-0.34c0.06,0.57,0.08,1.1,0.17,1.62c0.25,1.36,1.16,2.05,2.64,2.06c0.88,0.01,1.68-0.2,2.44-0.61
		c1.27-0.69,2.28-1.65,3.2-2.7c0.59-0.66,1.14-1.36,1.69-2.02c0.06,0.57,0.09,1.13,0.18,1.69c0.33,1.95,1.61,2.89,3.71,2.63
		c0.68-0.08,1.36-0.29,1.97-0.57c1.94-0.89,3.42-2.31,4.82-3.81c0.16-0.17,0.32-0.33,0.54-0.57c0.02,0.7-0.01,1.27,0.06,1.83
		c0.19,1.37,1.06,2.11,2.53,2.19c0.93,0.05,1.81-0.14,2.63-0.57c1.19-0.63,2.15-1.51,3.03-2.46c1.16-1.24,2.14-2.59,3.06-3.98
		c-0.31,0.38-0.63,0.74-0.96,1.1C123.82,36.76,122.97,37.54,121.95,38.14z"/>
	<path class="st0" d="M12.82,32.14c4.6-0.27,8.93-1.46,13.07-3.3c0.22-0.1,0.45-0.21,0.68-0.31c0.35-0.43,0.7-0.86,1.05-1.28
		c0.27-0.32,0.52-0.65,0.78-0.98c0.02-0.02,0-0.06,0-0.15c-0.6,0.28-1.18,0.55-1.76,0.81c-4.14,1.83-8.47,3.03-13.07,3.3
		c-2.6,0.15-5.16-0.07-7.56-1.09c-4.14-1.75-6.06-5.47-4.94-9.58c0.03-0.1,0.07-0.2,0.1-0.3c-0.35,0.69-0.63,1.43-0.85,2.21
		c-1.11,4.11,0.81,7.83,4.94,9.58C7.67,32.07,10.22,32.3,12.82,32.14z"/>
	<path class="st0" d="M17.91,58.29c-1.01-0.13-1.89-0.56-2.66-1.16c-2.47-1.94-3.4-4.38-2.57-7.32c0.07-0.24,0.16-0.46,0.24-0.69
		c-0.38,0.85-0.73,1.7-0.99,2.6c-0.83,2.95,0.1,5.38,2.57,7.32c0.77,0.6,1.65,1.03,2.66,1.16c0.86,0.11,1.16-0.16,1.16-0.96
		c0-0.31,0-0.63,0.01-0.94C18.2,58.31,18.07,58.31,17.91,58.29z"/>
	<path class="st0" d="M55.05,11.3c-2.79,0.25-5.59,0.14-8.37-0.1c-5.25-0.46-10.49-1-15.74-1.43c-3.1-0.26-6.22-0.24-9.32,0.21
		c-2.93,0.42-5.66,1.26-8.06,2.78c-0.21,0.16-0.42,0.32-0.62,0.5c-1.06,0.94-1.92,2-2.46,3.22c0.12-0.12,0.24-0.23,0.37-0.35
		c2.81-2.48,6.26-3.7,10.02-4.24c3.09-0.44,6.21-0.46,9.32-0.21c5.25,0.43,10.49,0.97,15.74,1.43c2.79,0.24,5.58,0.35,8.37,0.1
		c2.51-0.23,4.21-1.44,4.98-3.67c0.02-0.05,0.02-0.1,0.04-0.15c-0.19,0.12-0.38,0.24-0.58,0.33C57.84,10.63,56.61,11.16,55.05,11.3z
		"/>
	<path class="st0" d="M53.67,57.09c-2.7,0.33-5.17-1.92-4.85-4.42c0.14-1.1,0.43-2.16,0.79-3.2c-0.71,1.64-1.31,3.32-1.54,5.1
		c-0.32,2.5,2.15,4.75,4.85,4.42c0.66-0.08,0.89-0.29,0.85-0.84c-0.03-0.36-0.03-0.73-0.02-1.09C53.72,57.07,53.7,57.08,53.67,57.09
		z"/>
	<path class="st0" d="M54.72,30.08c0.44-0.53,0.9-1.05,1.39-1.55c0.41-0.42,0.91-0.77,1.42-1.09c0.72-0.46,1.48-0.45,2.24-0.02
		c0.73,0.42,1.23,1.01,1.54,1.73c0.26-0.37,0.53-0.74,0.79-1.11c0.1-0.14,0.12-0.39,0.06-0.56c-0.29-0.83-0.83-1.5-1.64-1.96
		c-0.7-0.4-1.4-0.41-2.08-0.05c-0.07,0.07-0.16,0.13-0.23,0.2C56.85,27.03,55.69,28.51,54.72,30.08z"/>
	<path class="st0" d="M38.52,31.2c-0.01,0.01-0.01,0.03-0.02,0.04c0.68-0.78,1.43-1.52,2.28-2.17c0.36-0.28,0.79-0.5,1.22-0.66
		c0.49-0.18,0.77,0.01,0.69,0.49c-0.02,0.11-0.05,0.22-0.08,0.33c0.11-0.2,0.22-0.4,0.32-0.6c0.25-0.51,0.41-1.08,0.5-1.63
		c0.08-0.48-0.2-0.67-0.69-0.49c-0.16,0.06-0.33,0.14-0.49,0.22C40.76,28.01,39.55,29.55,38.52,31.2z"/>
	<path class="st0" d="M41,36.1c-1.26,1.03-2.69,1.82-4.35,2.31c0.25,0.44,0.73,0.77,1.37,0.9c0.09,0.02,0.17,0.01,0.26,0.03
		c1.53-0.83,2.83-1.96,3.97-3.29c0.74-0.86,1.39-1.75,1.93-2.69C43.23,34.43,42.19,35.36,41,36.1z"/>
	<path class="st0" d="M37.02,46.48c-1.39,0.67-2.85,1.1-4.43,1.14c-2.57,0.05-4.14-1.21-4.48-3.6c-0.25-1.75,0.03-3.47,0.57-5.14
		c0.08-0.26,0.18-0.5,0.27-0.75c-0.37,0.87-0.72,1.75-1.02,2.66c-0.54,1.67-0.81,3.38-0.57,5.14c0.33,2.38,1.91,3.65,4.48,3.6
		c1.58-0.03,3.04-0.47,4.43-1.14c2.67-1.29,4.78-3.21,6.75-5.27c0.09-0.1,0.2-0.19,0.35-0.32c-0.01,0.77-0.08,1.47-0.02,2.17
		c0.24,2.65,2.15,3.8,4.86,2.93c0.34-0.11,0.67-0.24,0.98-0.4c0.49-0.25,0.98-0.54,1.57-0.87c0.14-0.3,0.27-0.6,0.41-0.9
		c0.15-0.33,0.32-0.66,0.55-1.13c-0.69,0.39-1.23,0.7-1.78,0.99c-0.31,0.16-0.64,0.29-0.98,0.4c-2.72,0.86-4.63-0.28-4.86-2.93
		c-0.05-0.58-0.02-1.17,0-1.79c-1.19,1.18-2.45,2.27-3.87,3.19C39.25,45.23,38.19,45.92,37.02,46.48z"/>
</g>
<g>
	<path class="st1" d="M105.6,10.55c0.11,0.88-0.15,1.16-1.09,1.47c-1.44,0.47-2.44,1.48-3.32,2.59c-0.5,0.63-0.82,1.33-0.88,2.14
		c-0.02,0.2-0.28,0.5-0.5,0.57c-1.01,0.32-2.2-0.28-2.37-1.27c-0.12-0.72-0.08-1.47,0.02-2.19c0.22-1.62,0.71-3.17,1.58-4.6
		c0.94-1.55,2.02-2.08,3.57-1.78C104.18,7.77,105.41,9.04,105.6,10.55"/>
	<g>
		<path class="st1" d="M125.51,18.17c0.8-0.16,1.48-0.35,2.18-0.41c0.3-0.03,0.73,0.14,0.91,0.35c0.1,0.12-0.13,0.56-0.3,0.79
			c-2.32,3.06-4.31,6.28-5.52,9.87c-0.14,0.41-0.19,0.87-0.18,1.3c0.01,0.63,0.49,0.91,1.1,0.61c0.48-0.24,0.95-0.57,1.29-0.95
			c1.23-1.35,2.4-2.75,3.6-4.12c0.21-0.24,0.41-0.5,0.63-0.74c0.33-0.36,0.73-0.43,1.16-0.17c0.45,0.27,0.64,0.8,0.39,1.21
			c-1.89,3.09-3.62,6.28-6.15,9c-0.89,0.95-1.84,1.83-3.03,2.46c-0.82,0.43-1.7,0.61-2.63,0.57c-1.47-0.07-2.34-0.81-2.53-2.19
			c-0.08-0.56-0.04-1.13-0.06-1.83c-0.22,0.23-0.39,0.4-0.54,0.57c-1.4,1.5-2.87,2.92-4.82,3.81c-0.61,0.28-1.3,0.49-1.97,0.57
			c-2.1,0.26-3.38-0.67-3.71-2.63c-0.09-0.56-0.12-1.12-0.18-1.69c-0.55,0.66-1.11,1.35-1.69,2.02c-0.92,1.04-1.93,2.01-3.2,2.7
			c-0.76,0.41-1.57,0.61-2.44,0.61c-1.49-0.01-2.39-0.69-2.64-2.06c-0.09-0.52-0.12-1.05-0.17-1.62c-0.1,0.11-0.2,0.23-0.32,0.34
			c-0.99,0.98-1.92,2.01-2.99,2.92c-0.95,0.81-2.12,1.26-3.47,1.23c-1.55-0.04-2.44-0.72-2.71-2.14c-0.06-0.32-0.07-0.65-0.12-1.08
			c-0.17,0.18-0.29,0.32-0.43,0.45c-0.97,0.89-1.89,1.85-2.94,2.65c-1.1,0.84-2.43,1.14-3.86,0.86c-1.02-0.2-1.69-0.77-2.02-1.69
			c-0.39-1.09-0.23-2.19-0.07-3.29c0.01-0.11,0.03-0.22,0.05-0.33c0-0.01-0.02-0.03-0.14-0.24c-0.14,0.23-0.21,0.41-0.33,0.56
			c-1.53,1.85-3.13,3.63-5.22,4.96c-1.33,0.85-2.78,1.33-4.43,1.12c-1.22-0.15-2.03-0.77-2.11-1.9c-0.07-0.92,0.01-1.89,0.25-2.78
			c0.75-2.74,2.16-5.22,3.66-7.66c2.02-3.29,4.29-6.43,6.79-9.41c0.85-1.02,1.95-1.62,3.36-1.6c0.93,0.01,1.09,0.31,0.61,1.03
			c-2.62,3.96-5.26,7.91-7.3,12.17c-0.36,0.75-0.57,1.57-0.8,2.36c-0.05,0.19,0.05,0.54,0.2,0.62c0.16,0.08,0.52,0,0.69-0.13
			c0.56-0.41,1.14-0.82,1.58-1.33c2.34-2.7,4.67-5.41,6.93-8.16c1.93-2.34,3.76-4.76,5.64-7.14c0.63-0.8,1.34-1.02,2.27-0.53
			c0.69,0.36,1.35,0.86,1.85,1.42c0.58,0.66,0.61,1.12-0.04,1.88c-2.34,2.72-4.39,5.61-6.07,8.72c-0.49,0.9-0.83,1.87-1.16,2.83
			c-0.16,0.46-0.27,1.05,0.27,1.37c0.56,0.33,1.1,0.01,1.5-0.36c0.84-0.78,1.64-1.6,2.42-2.43c1.52-1.6,2.56-3.5,3.73-5.32
			c1.07-1.67,2.25-3.27,3.85-4.55c0.76-0.61,1.57-1.16,2.64-1.12c0.32,0.01,0.73,0.13,0.92,0.34c0.1,0.12-0.11,0.57-0.29,0.8
			c-2.23,2.9-4.08,5.98-5.36,9.34c-0.22,0.58-0.32,1.22-0.35,1.84c-0.02,0.67,0.51,0.94,1.13,0.6c0.5-0.28,0.96-0.65,1.38-1.04
			c2.25-2.11,3.76-4.65,5.13-7.32c3.51-6.82,7.72-13.27,12.37-19.47c1.38-1.83,4.01-1.79,5.43,0.05c0.42,0.55,0.41,0.89-0.11,1.49
			c-4.7,5.48-8.82,11.32-12.42,17.48c-1.1,1.88-1.99,3.85-2.92,5.81c-0.24,0.49-0.33,1.07-0.37,1.61c-0.05,0.63,0.41,0.89,1,0.58
			c0.44-0.23,0.86-0.54,1.21-0.88c1.96-1.94,3.67-4.04,4.95-6.46c1.75-3.28,4.01-6.24,7.18-8.5c1.5-1.06,3.14-1.78,5.1-1.7
			c2.04,0.09,3.52,1,4.5,2.65c0.09,0.16,0.19,0.32,0.29,0.48C125.54,18.2,125.56,18.2,125.51,18.17 M111.49,30.86
			c0.21,0.81,0.64,1.1,1.43,0.82c0.47-0.17,0.95-0.4,1.32-0.72c1.03-0.86,2.05-1.75,2.98-2.7c2.1-2.15,3.88-4.52,5.56-6.97
			c0.67-0.98,0.72-1.16-0.03-2.13c-0.22-0.28-0.48-0.54-0.77-0.76c-0.93-0.7-1.81-0.72-2.78-0.09c-0.37,0.24-0.73,0.51-1.04,0.82
			c-2.64,2.58-4.48,5.62-5.83,8.92C111.96,28.96,111.77,29.92,111.49,30.86"/>
		<path class="st1" d="M29.75,24.17c-0.6,0.28-1.18,0.55-1.76,0.81c-4.14,1.83-8.47,3.03-13.07,3.3c-2.6,0.15-5.16-0.07-7.56-1.09
			c-4.14-1.75-6.06-5.47-4.94-9.58c0.87-3.2,2.95-5.64,5.71-7.61c3.52-2.51,7.57-3.83,11.9-4.47c3.99-0.59,8.02-0.61,12.04-0.75
			C37.18,4.6,42.3,4.47,47.4,4.2c3.07-0.16,6.12-0.62,9.01-1.67c1.34-0.49,2.57-1.15,3.55-2.17c0.5-0.52,0.85-0.48,1.23,0.13
			c0.55,0.9,0.65,1.9,0.61,2.9c-0.03,0.76-0.15,1.55-0.41,2.28c-0.78,2.23-2.48,3.45-4.98,3.67c-2.79,0.25-5.59,0.14-8.37-0.1
			c-5.25-0.46-10.49-1-15.74-1.43c-3.1-0.26-6.22-0.24-9.32,0.21c-3.76,0.54-7.21,1.75-10.02,4.24c-1.57,1.39-2.71,3.04-3.02,5.09
			c-0.4,2.65,0.94,4.85,3.56,5.96c2.07,0.87,4.26,0.98,6.47,0.76c5.27-0.54,10.01-2.36,14.2-5.37c0.86-0.61,1.59-1.39,2.34-2.11
			c0.83-0.8,1.74-1.43,2.99-1.36c0.33,0.02,0.75,0.2,0.93,0.43c0.11,0.15-0.08,0.6-0.26,0.81c-4.03,4.67-7.35,9.76-10.43,14.99
			c-2.77,4.71-5.26,9.55-7.22,14.62c-0.93,2.4-1.73,4.83-2.03,7.38c-0.08,0.64-0.08,1.29-0.08,1.93c0,0.79-0.3,1.07-1.16,0.96
			c-1.01-0.13-1.89-0.56-2.66-1.16c-2.47-1.94-3.4-4.38-2.57-7.32c0.7-2.49,2-4.73,3.36-6.94c3.39-5.51,7.44-10.59,11.59-15.61
			c0.27-0.32,0.52-0.65,0.78-0.98C29.77,24.3,29.76,24.26,29.75,24.17"/>
		<path class="st1" d="M68.28,23.16c-0.48-0.04-0.98,0.03-1.46,0.12c-0.36,0.06-0.69,0.22-1.05,0.35c-0.08-0.12-0.14-0.19-0.18-0.27
			c-1.37-2.46-3.72-3.43-6.61-2.7c-2.02,0.51-3.59,1.68-5.03,3.03c-2.68,2.53-4.64,5.5-6.23,8.71c-0.15,0.3-0.26,0.64-0.48,0.88
			c-1.6,1.75-3.32,3.38-5.53,4.47c-1.15,0.57-2.38,0.83-3.68,0.57c-0.92-0.18-1.52-0.77-1.58-1.52c0.4-0.08,0.81-0.14,1.2-0.24
			c2.79-0.72,4.93-2.31,6.7-4.38c1.83-2.13,3.2-4.46,3.41-7.23c0.14-1.92-0.8-3.5-3.54-3.1c-1.94,0.28-3.64,1.05-5.14,2.17
			c-4.53,3.37-7.38,7.79-9.04,12.91c-0.54,1.67-0.81,3.38-0.57,5.14c0.33,2.38,1.91,3.65,4.48,3.6c1.58-0.03,3.04-0.47,4.43-1.14
			c2.67-1.29,4.78-3.21,6.75-5.27c0.09-0.1,0.2-0.19,0.35-0.32c-0.01,0.77-0.08,1.47-0.02,2.17c0.24,2.65,2.15,3.8,4.86,2.93
			c0.34-0.11,0.67-0.24,0.98-0.4c0.55-0.29,1.08-0.6,1.78-0.99c-0.23,0.47-0.4,0.8-0.55,1.13c-1.03,2.24-2.04,4.49-2.36,6.94
			c-0.32,2.5,2.15,4.75,4.85,4.42c0.66-0.08,0.89-0.29,0.85-0.84c-0.13-1.75,0.15-3.47,0.57-5.16c1.53-6.15,4.18-11.91,7.26-17.51
			c1.45-2.63,3.01-5.2,4.98-7.53C69.08,23.62,68.93,23.23,68.28,23.16 M38.53,30.2c1.17-1.87,2.53-3.62,4.36-5
			c0.36-0.28,0.79-0.5,1.22-0.66c0.49-0.18,0.77,0.01,0.69,0.49c-0.09,0.56-0.25,1.12-0.5,1.63c-1.28,2.58-3.08,4.77-5.66,6.34
			c-0.55,0.33-1.18,0.56-1.77,0.83c-0.07-0.07-0.15-0.14-0.22-0.21C37.27,32.48,37.84,31.31,38.53,30.2 M63.44,26.07
			c-2.33,3.32-4.73,6.6-7.84,9.35c-0.7,0.63-1.54,1.16-2.4,1.59c-0.79,0.39-1.28,0.07-1.39-1.01c0.09-0.4,0.18-1.1,0.42-1.76
			c1.29-3.57,3.22-6.8,5.97-9.58c0.41-0.42,0.91-0.77,1.42-1.09c0.72-0.46,1.48-0.45,2.24-0.02c0.81,0.46,1.35,1.13,1.64,1.96
			C63.57,25.68,63.54,25.93,63.44,26.07"/>
	</g>
</g>
</svg>
