<?xml version="1.0" encoding="utf-8"?>
<!-- Generator: Adobe Illustrator 23.0.3, SVG Export Plug-In . SVG Version: 6.00 Build 0)  -->
<svg version="1.1" id="RRSS" xmlns="http://www.w3.org/2000/svg" xmlns:xlink="http://www.w3.org/1999/xlink" x="0px" y="0px"
	 viewBox="0 0 87 16" style="enable-background:new 0 0 87 16;" xml:space="preserve">
<style type="text/css">
	.st0{fill:#38321D;}
</style>
<g>
	<g>
		<path class="st0" d="M15.53,8c0-4.35-3.53-7.87-7.87-7.87S-0.21,3.65-0.21,8c0,3.93,2.88,7.19,6.64,7.78v-5.5h-2V8h2V6.27
			C6.43,4.29,7.6,3.2,9.4,3.2c0.86,0,1.76,0.15,1.76,0.15v1.94h-0.99c-0.98,0-1.28,0.61-1.28,1.23V8h2.18l-0.35,2.28H8.89v5.5
			C12.65,15.19,15.53,11.93,15.53,8z"/>
	</g>
	<g>
		<path class="st0" d="M40.05,1.52c2.11,0,2.36,0.01,3.19,0.05c0.77,0.04,1.19,0.16,1.47,0.27c0.37,0.14,0.63,0.31,0.91,0.59
			c0.28,0.28,0.45,0.54,0.59,0.91c0.11,0.28,0.24,0.7,0.27,1.47c0.04,0.83,0.05,1.08,0.05,3.19s-0.01,2.36-0.05,3.19
			c-0.04,0.77-0.16,1.19-0.27,1.47c-0.14,0.37-0.31,0.63-0.59,0.91c-0.28,0.28-0.54,0.45-0.91,0.59c-0.28,0.11-0.7,0.24-1.47,0.27
			c-0.83,0.04-1.08,0.05-3.19,0.05s-2.36-0.01-3.19-0.05c-0.77-0.04-1.19-0.16-1.47-0.27c-0.37-0.14-0.63-0.31-0.91-0.59
			c-0.28-0.28-0.45-0.54-0.59-0.91c-0.11-0.28-0.24-0.7-0.27-1.47c-0.04-0.83-0.05-1.08-0.05-3.19s0.01-2.36,0.05-3.19
			c0.04-0.77,0.16-1.19,0.27-1.47c0.14-0.37,0.31-0.63,0.59-0.91c0.28-0.28,0.54-0.45,0.91-0.59c0.28-0.11,0.7-0.24,1.47-0.27
			C37.69,1.53,37.94,1.52,40.05,1.52 M40.05,0.09c-2.15,0-2.42,0.01-3.26,0.05c-0.84,0.04-1.42,0.17-1.92,0.37
			c-0.52,0.2-0.96,0.47-1.4,0.91c-0.44,0.44-0.71,0.88-0.91,1.4c-0.2,0.5-0.33,1.08-0.37,1.92C32.16,5.58,32.15,5.85,32.15,8
			c0,2.15,0.01,2.42,0.05,3.26c0.04,0.84,0.17,1.42,0.37,1.92c0.2,0.52,0.47,0.96,0.91,1.4c0.44,0.44,0.88,0.71,1.4,0.91
			c0.5,0.2,1.08,0.33,1.92,0.37c0.84,0.04,1.11,0.05,3.26,0.05s2.42-0.01,3.26-0.05c0.84-0.04,1.42-0.17,1.92-0.37
			c0.52-0.2,0.96-0.47,1.4-0.91c0.44-0.44,0.71-0.88,0.91-1.4c0.2-0.5,0.33-1.08,0.37-1.92c0.04-0.84,0.05-1.11,0.05-3.26
			s-0.01-2.42-0.05-3.26c-0.04-0.84-0.17-1.42-0.37-1.92c-0.2-0.52-0.47-0.96-0.91-1.4c-0.44-0.44-0.88-0.71-1.4-0.91
			c-0.5-0.2-1.08-0.33-1.92-0.37C42.47,0.1,42.2,0.09,40.05,0.09L40.05,0.09z"/>
		<path class="st0" d="M40.05,3.94c-2.24,0-4.06,1.82-4.06,4.06s1.82,4.06,4.06,4.06s4.06-1.82,4.06-4.06S42.29,3.94,40.05,3.94z
			 M40.05,10.64c-1.46,0-2.64-1.18-2.64-2.64s1.18-2.64,2.64-2.64S42.69,6.54,42.69,8S41.51,10.64,40.05,10.64z"/>
		<circle class="st0" cx="44.27" cy="3.78" r="0.95"/>
	</g>
	<g>
		<g>
			<path class="st0" d="M75.54,11.46c-0.12,0.11-0.28,0.16-0.43,0.16c-0.16,0-0.31-0.05-0.43-0.16L64,2.08v12.15
				c0,0.36,0.29,0.66,0.66,0.66h20.9c0.36,0,0.66-0.29,0.66-0.66V2.08L75.54,11.46z"/>
			<path class="st0" d="M75.11,10.09l10.2-8.97h-20.4L75.11,10.09z"/>
		</g>
	</g>
</g>
</svg>
